<svg version="1.2" xmlns="http://www.w3.org/2000/svg" viewBox="0 0 800 800" width="800" height="800">
	<title>mail-with-circle-svgrepo-com (1)</title>
	<style>
		.s0 { fill: #f1f1f1;stroke: #f1f1f1;stroke-width: .4 } 
	</style>
	<g id="SVGRepo_bgCarrier">
	</g>
	<g id="SVGRepo_tracerCarrier">
	</g>
	<g id="SVGRepo_iconCarrier">
		<path class="s0" d="m400 0c-220.9 0-400 179.1-400 400 0 220.9 179.1 400 400 400 220.9 0 400-179.1 400-400 0-220.9-179.1-400-400-400zm-157 275h313.3c16.6 0 8 21.3-1 26.8-9 5.4-134.2 81.1-138.9 83.9-4.7 2.8-10.7 4.2-16.8 4.2q-2.2 0-4.3-0.2-2.2-0.3-4.3-0.8-2.1-0.5-4.2-1.3-2-0.8-3.9-1.9l-138.9-83.9c-9.1-5.5-17.6-26.8-1-26.8zm323.7 229.2c0 8.7-10.5 20.8-18.5 20.8h-296.4c-8 0-18.5-12.1-18.5-20.8v-152c0-3.8 0-8.8 7.2-4.6l142.4 84q1.8 1.1 3.9 2 2 0.8 4.1 1.4 2.2 0.5 4.3 0.7 2.2 0.2 4.4 0.1c6.1 0 10.5-0.5 16.8-4.2l143.1-83.9c7.3-4.3 7.2 0.7 7.2 4.6z"/>
	</g>
</svg>